<?xml version="1.0" encoding="iso-8859-1"?>
<!-- Generator: Adobe Illustrator 18.0.0, SVG Export Plug-In . SVG Version: 6.00 Build 0)  -->
<!DOCTYPE svg PUBLIC "-//W3C//DTD SVG 1.1//EN" "http://www.w3.org/Graphics/SVG/1.1/DTD/svg11.dtd">
<svg version="1.1" id="Capa_1" xmlns="http://www.w3.org/2000/svg" xmlns:xlink="http://www.w3.org/1999/xlink" x="0px" y="0px"
   viewBox="0 0 297 297" style="enable-background:new 0 0 297 297;" xml:space="preserve">
  <g>
    <path d="M113.636,272.638c-2.689,0-5.267-1.067-7.168-2.97L2.967,166.123c-3.956-3.957-3.956-10.371-0.001-14.329l54.673-54.703
      c1.9-1.9,4.479-2.97,7.167-2.97c2.689,0,5.268,1.068,7.169,2.969l41.661,41.676L225.023,27.332c1.9-1.901,4.48-2.97,7.168-2.97l0,0
      c2.688,0,5.268,1.068,7.167,2.97l54.675,54.701c3.956,3.957,3.956,10.372,0,14.328L120.803,269.668
      C118.903,271.57,116.325,272.638,113.636,272.638z M24.463,158.958l89.173,89.209l158.9-158.97l-40.346-40.364L120.803,160.264
      c-1.9,1.902-4.478,2.971-7.167,2.971c-2.688,0-5.267-1.068-7.168-2.97l-41.66-41.674L24.463,158.958z"/>
  </g>
</svg>